<?xml version="1.0" encoding="iso-8859-1"?>
<!-- Uploaded to: SVG Repo, www.svgrepo.com, Generator: SVG Repo Mixer Tools -->
<svg height="800px" width="800px" version="1.1" id="Layer_1" xmlns="http://www.w3.org/2000/svg" xmlns:xlink="http://www.w3.org/1999/xlink" 
	 viewBox="0 0 512 512" xml:space="preserve">
<path style="fill:#3C5D76;" d="M301.425,256c0-98.198,71.422-179.704,165.15-195.435C421.965,22.807,364.314,0,301.425,0
	c-141.16,0-256,114.84-256,256s114.84,256,256,256c62.887,0,120.538-22.807,165.15-60.565
	C372.847,435.704,301.425,354.2,301.425,256z"/>
<path style="fill:#1E2E3B;" d="M301.425,256c0-98.198,71.422-179.704,165.15-195.435C421.965,22.807,364.314,0,301.425,0
	c-15.497,0-30.677,1.386-45.424,4.038v503.924c14.747,2.651,29.927,4.038,45.424,4.038c62.887,0,120.538-22.807,165.15-60.565
	C372.849,435.704,301.425,354.2,301.425,256z"/>
</svg>