<?xml version="1.0" encoding="utf-8"?>
<!-- Uploaded to: SVG Repo, www.svgrepo.com, Generator: SVG Repo Mixer Tools -->
<svg width="800px" height="800px" viewBox="0 0 1024 1024" class="icon"  version="1.1" xmlns="http://www.w3.org/2000/svg"><path d="M129.6 992h608v-163.2h156.8V32H129.6z" fill="#E8E8E8" /><path d="M881.6 859.2h-112v112l0.016-0.016z" fill="#E8E8E8" /><path d="M97.6 0v1024h665.6l163.2-163.2V0H97.6z m672 971.2v-112h112l-112 112z m124.8-142.4h-156.8V992h-608V32h764.8v796.8z" fill="" /><path d="M243.2 152h536v32h-536zM243.2 264h536v32h-536zM243.2 376h536v32h-536zM243.2 488h536v32h-536zM243.2 600h536v32h-536zM243.2 712h536v32h-536z" fill="" /></svg>