<?xml version="1.0" encoding="iso-8859-1"?>
<!-- Uploaded to: SVG Repo, www.svgrepo.com, Generator: SVG Repo Mixer Tools -->
<svg version="1.1" id="Layer_1" xmlns="http://www.w3.org/2000/svg" xmlns:xlink="http://www.w3.org/1999/xlink" 
	 viewBox="0 0 512 512" xml:space="preserve">
<rect x="20.204" y="4" style="fill:#FFFFFF;" width="340.389" height="412.687"/>
<path style="fill:#CCCCCC;" d="M356.593,8v404.688H24.209V8H356.593 M364.593,0H16.209v420.688h348.383V0z"/>
<rect x="16.213" style="fill:#6B6B6B;" width="49.16" height="420.687"/>
<polygon style="fill:#E21B1B;" points="226.553,0 226.553,184.44 166.409,133.872 106.257,185.44 106.257,0 "/>
<polygon style="fill:#F91E1E;" points="106.257,0 106.257,185.44 166.409,133.872 166.409,0 "/>
<rect x="391.601" y="151.377" transform="matrix(0.5794 -0.8151 0.8151 0.5794 -5.2643 436.6213)" style="fill:#E21B1B;" width="57.589" height="144.068"/>
<rect x="228.42" y="271.481" transform="matrix(0.5794 -0.8151 0.8151 0.5794 -139.0731 417.5432)" width="213.175" height="144.068"/>
<rect x="190.087" y="291.278" transform="matrix(0.5794 -0.8151 0.8151 0.5794 -132.9815 374.8353)" style="fill:#666666;" width="213.175" height="49.963"/>
<rect x="353.254" y="171.163" transform="matrix(0.5794 -0.8151 0.8151 0.5794 0.8297 393.8973)" style="fill:#F91E1E;" width="57.589" height="49.963"/>
<polygon style="fill:#CCCCCC;" points="209.305,399.648 211.289,512 323.193,480.6 "/>
<rect x="394.238" y="179.715" transform="matrix(0.5794 -0.8151 0.8151 0.5794 -36.84 432.1113)" style="fill:#FFFFFF;" width="12" height="144.068"/>
</svg>